<svg width="1665" height="666" viewBox="0 0 1665 666" fill="none" xmlns="http://www.w3.org/2000/svg">
    <g clip-path="url(#clip0_611_652)">
        <path d="M0 593.194H40.8625V666H61.5907V593.194H102.669V577.29H0V593.194Z" fill="white"/>
        <path d="M213.489 611.731H148.768V577.29H128.04V666H148.768V627.797H213.489V666H234.379V577.29H213.489V611.731Z" fill="white"/>
        <path d="M280.478 627.313H321.61V612.215H280.478V592.442H350.975V577.29H259.75V666H351.785V649.29H280.478V627.313Z" fill="white"/>
        <path d="M478.583 577.29H454.724L427.68 607.433L399.179 577.29H371.703L414.725 620.436L372.459 666H396.912L426.978 631.612L459.636 666H487.759L439.718 618.072L478.583 577.29Z" fill="white"/>
        <path d="M590.644 577.29H514.479V665.946H534.884V631.397H590.698C597.77 631.397 602.898 630.054 606.083 627.313C609.267 624.573 610.833 620.275 610.833 614.257V594.43C610.833 588.412 609.267 584.006 606.083 581.319C602.898 578.579 597.77 577.236 590.698 577.236L590.644 577.29ZM590.806 609.099C590.806 611.731 590.159 613.558 588.863 614.579C587.514 615.6 585.085 616.137 581.468 616.137H534.884V592.657H581.468C585.085 592.657 587.514 593.194 588.863 594.215C590.159 595.236 590.806 597.063 590.806 599.642V609.099Z" fill="white"/>
        <path d="M658.821 639.403H643.382C639.874 639.403 637.823 639.779 637.121 640.585C636.419 641.391 636.095 643.057 636.095 645.689V659.606C636.095 662.077 636.419 663.743 637.013 664.657C637.607 665.57 638.686 666 640.198 666H655.636C659.145 666 661.196 665.624 661.897 664.818C662.545 664.066 662.923 662.292 662.923 659.606V645.689C662.923 643.218 662.599 641.552 662.005 640.692C661.412 639.833 660.332 639.403 658.821 639.403Z" fill="white"/>
        <path d="M739.034 577.29L688.671 666H709.292L719.656 646.603H776.118L786.806 666H810.071L759.007 577.29H739.034ZM728.508 630.591L748.319 594.484L767.536 630.591H728.508Z" fill="white"/>
        <path d="M856.17 577.343H835.442V666H856.17V577.343Z" fill="white"/>
        <path d="M1433.54 0.268715C1430.14 0.161252 1426.79 5.78233e-05 1423.23 5.78233e-05H1027.67C1027.07 5.78233e-05 1026.43 5.78276e-05 1025.78 0.107521C950.748 0.591103 880.358 35.7314 835.015 95.2657C790.914 37.3433 721.064 -0.0536735 642.416 5.78233e-05H0.0593262V96.1792H642.416C722.468 96.1792 787.459 160.764 787.459 240.555C787.459 320.346 722.468 384.77 642.416 384.77H0.0593262V480.949H642.686C721.226 480.896 790.914 443.499 835.015 385.684C880.196 445.057 950.748 480.305 1025.78 480.842L1177.08 480.949V384.77H1025.78C951.773 383.696 891.37 327.761 883.543 256.245C883.867 250.979 884.137 245.714 884.137 240.394V240.287C884.137 235.128 883.921 230.024 883.597 224.919C891.424 153.134 951.881 97.1463 1025.89 96.1792H1433.65C1513.81 96.1792 1578.69 160.764 1578.8 240.394C1578.8 320.078 1513.81 384.77 1433.76 384.77H1290.6V666H1387.33V480.949H1423.45C1426.96 480.949 1430.36 480.842 1433.76 480.681C1563.09 475.2 1665.11 369.188 1665.11 240.394C1665.01 111.493 1562.98 5.64185 1433.65 0.268715H1433.54Z" fill="white"/>
        <path d="M361.933 287.624C365.064 287.033 368.087 286.12 371.002 284.884C373.917 283.702 376.723 282.197 379.368 280.424C382.013 278.651 384.443 276.663 386.71 274.46C388.977 272.203 390.974 269.785 392.701 267.152C394.429 264.52 395.94 261.779 397.182 258.824C398.423 255.923 399.341 252.914 399.935 249.797C400.528 246.681 400.852 243.564 400.852 240.394C400.852 237.224 400.528 234.108 399.935 230.991C399.341 227.875 398.423 224.866 397.182 221.964C395.994 219.063 394.483 216.269 392.701 213.636C390.92 211.003 388.923 208.585 386.71 206.329C384.443 204.072 382.013 202.084 379.368 200.364C376.723 198.645 373.971 197.141 371.002 195.905C368.087 194.723 365.064 193.809 361.933 193.164C358.802 192.573 355.671 192.251 352.487 192.251H0V288.484H352.541C355.725 288.484 358.856 288.161 361.987 287.57L361.933 287.624Z" fill="white"/>
    </g>
    <defs>
        <clipPath id="clip0_611_652">
            <rect width="1665" height="666" fill="white"/>
        </clipPath>
    </defs>
</svg>
